<svg width="52" height="52" viewBox="0 0 52 52" fill="none" xmlns="http://www.w3.org/2000/svg">
<rect x="1.25341" y="1.29394" width="49.3446" height="49.3446" rx="24.6723" fill="#61BCFF"/>
<rect x="1.25341" y="1.29394" width="49.3446" height="49.3446" rx="24.6723" stroke="black" stroke-width="2.20946"/>
<path d="M23.3857 17.0113V22.0496L20.757 20.7353C19.3113 20.0343 17.9531 19.4209 17.6902 19.4209C16.6826 19.4209 17.3836 20.7791 19.2674 22.4439C20.6256 23.6268 21.1075 24.284 20.7132 24.4154C20.3627 24.5469 17.7779 25.2479 14.8863 25.9488C9.49752 27.2632 8.40224 27.8327 9.23465 28.6651C9.54133 28.9718 11.6443 28.8404 16.3321 28.1394C20.0122 27.6137 23.1228 27.307 23.2543 27.4384C23.3857 27.6137 22.6409 29.1471 21.6333 30.8995C20.5818 32.652 19.7056 34.2292 19.6179 34.3606C19.5303 34.5359 19.7494 34.8863 20.056 35.1492C20.5818 35.5873 21.0199 35.3683 22.4219 34.1415C23.3857 33.2653 24.3496 32.5643 24.5686 32.5643C24.7877 32.5643 25.2258 33.8787 25.5763 35.4997C26.3211 39.2675 26.8468 40.4504 27.8106 40.4504C28.9936 40.4504 29.2126 39.0922 28.8621 34.0539C28.6869 31.5129 28.6869 29.4975 28.9059 29.4975C29.125 29.4975 30.8774 30.1985 32.8051 31.0309C36.6167 32.6958 37.8434 32.9148 37.8434 31.951C37.8434 31.0748 37.1425 30.4614 33.769 28.1394C32.148 27.0879 30.8336 26.0803 30.8336 25.9488C30.8336 25.8174 33.068 25.0726 35.7843 24.284C40.6474 22.882 42.6627 21.962 42.6627 21.1734C42.6627 20.5162 39.9026 20.6477 35.5214 21.4363C33.4185 21.8306 31.5346 22.0496 31.4032 21.8744C31.2717 21.7429 31.5784 20.6038 32.1042 19.3771C34.0757 14.6017 32.849 14.1636 29.7822 18.5885C28.6431 20.2972 27.504 21.5239 27.3287 21.3048C27.1535 21.1296 26.6716 19.3771 26.2334 17.4494C25.3572 13.3312 24.7877 11.973 23.9553 11.973C23.5171 11.973 23.3857 13.1121 23.3857 17.0113Z" fill="black"/>
</svg>
