<svg width="297" height="5" viewBox="0 0 297 5" fill="none" xmlns="http://www.w3.org/2000/svg">
<path d="M241.421 2.27648C286.472 2.27648 280.18 2.27648 294.982 2.27648C294.727 2.42393 292.432 2.98798 291.485 3.10223C290.301 3.24506 259.242 3.16712 252.613 3.16712C229.922 3.16712 127.416 2.63427 120.707 2.63427M241.421 2.27648C241.421 2.27648 132.764 3.16712 115.434 3.16712C98.1042 3.16712 102.203 3.1912 65.6179 3.16712C38.266 3.14912 5.55941 3.16712 3.35848 3.16712C1.15755 3.16712 1.96967 2.09869 1.96967 2.09869C17.354 2.63426 44.1286 2.63427 79.2929 2.63427C91.4101 2.63427 105.583 2.63427 120.707 2.63427M241.421 2.27648C208.487 2.27648 161.811 2.63427 120.707 2.63427" stroke="black" stroke-width="3.23932" stroke-miterlimit="10" stroke-linecap="round" stroke-linejoin="round"/>
</svg>
