<svg width="294" height="5" viewBox="0 0 294 5" fill="none" xmlns="http://www.w3.org/2000/svg">
<path d="M1.76196 2.46545C17.5372 2.46545 31.3008 2.46545 39.416 2.46545M39.416 2.46545C47.5311 2.46545 83.5621 2.62284 98.8185 2.62284M39.416 2.46545C39.416 2.46545 57.0141 1.97549 67.3319 1.97549C77.6497 1.97549 98.8185 2.62284 98.8185 2.62284M291.681 2.62284C275.535 2.62284 283 2.46545 266.963 2.46545C257.822 2.46545 246.639 2.72777 230.608 2.62284M141.762 1.97549C152.857 1.99065 210.847 2.49352 230.608 2.62284M141.762 1.97549C130.288 1.95982 114.075 2.62285 98.8185 2.62284M141.762 1.97549C141.762 1.97549 169.582 1.97549 185.163 1.97549M230.608 2.62284C230.608 2.62284 200.744 1.97549 185.163 1.97549M98.8185 2.62284C108.17 2.62284 129.85 2.62284 141.762 2.62284C153.674 2.62284 175.66 2.19128 185.163 1.97549" stroke="black" stroke-width="3.23932" stroke-miterlimit="10" stroke-linecap="round" stroke-linejoin="round"/>
</svg>
