<svg width="300" height="296" viewBox="0 0 300 296" fill="none" xmlns="http://www.w3.org/2000/svg">
<path d="M11.6668 1.98145C11.6668 32.7834 11.995 45.1619 11.995 77.9195M11.995 77.9195C11.995 110.677 11.9443 170.381 11.6668 210.509C11.3894 250.636 11.1741 289.694 11.1741 289.694C11.1741 295.362 10.5672 288.673 10.6114 285.658C10.6668 281.888 11.1978 174.635 11.1978 165.272C11.1978 155.909 11.6668 108.247 11.995 77.9195Z" stroke="black" stroke-width="3.23932" stroke-miterlimit="10" stroke-linecap="round" stroke-linejoin="round"/>
<path d="M241.421 285.276C286.472 285.276 280.18 285.276 294.982 285.276C294.727 285.424 292.432 285.988 291.485 286.102C290.301 286.245 259.242 286.167 252.613 286.167C229.922 286.167 127.416 285.634 120.707 285.634M241.421 285.276C241.421 285.276 132.764 286.167 115.434 286.167C98.1042 286.167 102.203 286.191 65.6179 286.167C38.266 286.149 5.55941 286.167 3.35848 286.167C1.15755 286.167 1.96967 285.099 1.96967 285.099C17.354 285.634 44.1286 285.634 79.2929 285.634C91.4101 285.634 105.583 285.634 120.707 285.634M241.421 285.276C208.487 285.276 161.811 285.634 120.707 285.634" stroke="black" stroke-width="3.23932" stroke-miterlimit="10" stroke-linecap="round" stroke-linejoin="round"/>
<path d="M287.124 148.114C287.124 183.959 287.854 206.512 287.854 229.949C287.854 253.387 287.481 293.092 287.481 293.092C287.481 293.092 286.622 294.765 286.622 291.496C286.622 288.226 287.184 264.982 287.124 231.577C287.063 198.172 287.066 163.168 287.124 148.114ZM287.124 148.114C287.123 131.216 286.733 96.6995 286.756 77.4921C286.782 55.9543 286.756 24.938 286.756 4.14099" stroke="black" stroke-width="3.23932" stroke-miterlimit="10" stroke-linecap="round" stroke-linejoin="round"/>
<path d="M7.76196 9.46545C23.5372 9.46545 37.3008 9.46545 45.416 9.46545M45.416 9.46545C53.5311 9.46545 89.5621 9.62284 104.819 9.62284M45.416 9.46545C45.416 9.46545 63.0141 8.97549 73.3319 8.97549C83.6497 8.97549 104.819 9.62284 104.819 9.62284M297.681 9.62284C281.535 9.62284 289 9.46545 272.963 9.46545C263.822 9.46545 252.639 9.72777 236.608 9.62284M147.762 8.97549C158.857 8.99065 216.847 9.49352 236.608 9.62284M147.762 8.97549C136.288 8.95982 120.075 9.62285 104.819 9.62284M147.762 8.97549C147.762 8.97549 175.582 8.97549 191.163 8.97549M236.608 9.62284C236.608 9.62284 206.744 8.97549 191.163 8.97549M104.819 9.62284C114.17 9.62284 135.85 9.62284 147.762 9.62284C159.674 9.62284 181.66 9.19128 191.163 8.97549" stroke="black" stroke-width="3.23932" stroke-miterlimit="10" stroke-linecap="round" stroke-linejoin="round"/>
</svg>
