<svg width="48" height="71" viewBox="0 0 48 71" fill="none" xmlns="http://www.w3.org/2000/svg">
<g filter="url(#filter0_d_1_1277)">
<path d="M2.78056 11.8188V23.6375L-3.38573 20.5544C-6.77719 18.91 -9.9631 17.4712 -10.5797 17.4712C-12.9435 17.4712 -11.2991 20.6571 -6.87996 24.5624C-3.69404 27.3373 -2.56356 28.8788 -3.4885 29.1872C-4.31067 29.4955 -10.3742 31.1398 -17.1571 32.7842C-29.798 35.8673 -32.3673 37.2033 -30.4146 39.156C-29.6952 39.8754 -24.7622 39.5671 -13.7656 37.9227C-5.13284 36.6895 2.16393 35.9701 2.47224 36.2784C2.78056 36.6895 1.03344 40.2865 -1.3303 44.3973C-3.79682 48.5082 -5.85224 52.208 -6.05779 52.5163C-6.26333 52.9274 -5.74947 53.7495 -5.03007 54.3662C-3.79682 55.3939 -2.7691 54.88 0.519587 52.0024C2.78056 49.947 5.04153 48.3026 5.55539 48.3026C6.06924 48.3026 7.09696 51.3858 7.91913 55.1883C9.66624 64.0267 10.8995 66.8015 13.1605 66.8015C15.9353 66.8015 16.4492 63.6156 15.627 51.7969C15.2159 45.8361 15.2159 41.1086 15.7298 41.1086C16.2436 41.1086 20.3545 42.753 24.8764 44.7056C33.8175 48.611 36.6951 49.1248 36.6951 46.8638C36.6951 44.8084 35.0508 43.3696 27.1374 37.9227C23.3349 35.4562 20.2517 33.0925 20.2517 32.7842C20.2517 32.4758 25.493 30.7287 31.8649 28.8788C43.2725 25.5902 48 23.432 48 21.5821C48 20.0405 41.5254 20.3488 31.2482 22.1987C26.3152 23.1236 21.896 23.6375 21.5877 23.2264C21.2794 22.9181 21.9988 20.246 23.2321 17.3684C27.8568 6.16635 24.9792 5.13863 17.7852 15.5186C15.1131 19.5266 12.4411 22.4042 12.03 21.8904C11.6189 21.4793 10.4884 17.3684 9.4607 12.8465C7.40527 3.18597 6.06924 6.10352e-05 4.11658 6.10352e-05C3.08887 6.10352e-05 2.78056 2.67212 2.78056 11.8188Z" fill="#F3ABCB"/>
<path d="M13.1602 66.2781C13.7414 66.2781 14.1358 66.1181 14.4395 65.7732C14.7684 65.3995 15.0461 64.7479 15.2266 63.6462C15.5424 61.7182 15.5276 58.6524 15.2432 53.95L15.1055 51.8328C14.8994 48.8452 14.7956 46.1586 14.8086 44.2136C14.8151 43.2444 14.8504 42.4433 14.9199 41.8767C14.9541 41.5982 15 41.3464 15.0664 41.1531C15.0986 41.0593 15.1472 40.9434 15.2266 40.8416C15.3066 40.7389 15.4726 40.5858 15.7295 40.5857C15.8787 40.5857 16.0687 40.6347 16.2285 40.6804C16.4127 40.7331 16.6439 40.8083 16.9121 40.9021C17.45 41.0901 18.161 41.3596 18.9922 41.6882C20.2401 42.1816 21.7694 42.8117 23.4111 43.5085L25.084 44.2253L25.0859 44.2263C29.5648 46.1826 32.4649 47.2614 34.2324 47.5828C35.1306 47.7461 35.6211 47.6892 35.8682 47.5632C36.041 47.4751 36.1718 47.3122 36.1719 46.864C36.1719 46.4307 36.0881 46.0422 35.8555 45.616C35.6159 45.177 35.2082 44.6785 34.5283 44.0486C33.3323 42.9404 31.3799 41.5009 28.2539 39.3298L26.8525 38.3621C24.9425 37.1231 23.2112 35.9077 21.9541 34.9617C21.3267 34.4895 20.8111 34.0796 20.4492 33.7644C20.2698 33.6082 20.1181 33.4674 20.0078 33.3484C19.9536 33.2899 19.8984 33.2246 19.8535 33.158C19.831 33.1246 19.8039 33.0808 19.7812 33.0291C19.7659 32.9941 19.7445 32.9362 19.7344 32.863L19.7285 32.7839L19.7324 32.7166C19.7509 32.5654 19.8274 32.4623 19.8613 32.4207C19.9086 32.3627 19.9606 32.3203 19.9971 32.2927C20.0718 32.2363 20.1612 32.1845 20.248 32.1394C20.4271 32.0464 20.6764 31.938 20.9766 31.8181C21.5812 31.5766 22.4467 31.2681 23.5029 30.9138C25.0896 30.3817 27.1232 29.7417 29.3867 29.0642L31.7188 28.3767L31.7197 28.3757C37.4201 26.7324 41.4231 25.3798 43.9941 24.2146C45.2823 23.6308 46.1813 23.1067 46.75 22.6365C47.327 22.1592 47.474 21.8125 47.4756 21.5857C47.4704 21.5781 47.4533 21.5543 47.4053 21.5212C47.2915 21.4431 47.077 21.3536 46.7217 21.28C46.018 21.1343 44.939 21.084 43.499 21.1414C40.6315 21.2555 36.4709 21.7902 31.3408 22.7136H31.3398C28.8664 23.1773 26.5161 23.5387 24.7402 23.7332C23.8539 23.8302 23.0985 23.8873 22.5381 23.8923C22.2604 23.8948 22.0124 23.8854 21.8135 23.8562C21.7147 23.8417 21.6091 23.8198 21.5117 23.7839C21.4386 23.757 21.3204 23.7023 21.2188 23.5955L21.2178 23.5964C21.1165 23.4951 21.0667 23.3787 21.041 23.2947C21.0143 23.2072 21.0025 23.1184 20.9971 23.0398C20.9863 22.8832 20.9988 22.7044 21.0225 22.5193C21.0703 22.1452 21.1773 21.665 21.3281 21.1208C21.6304 20.0301 22.1254 18.6233 22.748 17.1697V17.1687C23.8988 14.3813 24.5696 12.2572 24.8281 10.8025C24.9582 10.0704 24.9771 9.54695 24.9219 9.20776C24.8946 9.04051 24.8534 8.9441 24.8213 8.89429C24.7942 8.85232 24.7765 8.84688 24.7695 8.84448C24.7314 8.83149 24.5538 8.8129 24.1484 9.0437C23.7659 9.26153 23.278 9.64697 22.6885 10.2263C21.5141 11.3804 20.0084 13.2296 18.2207 15.8083C16.874 17.8285 15.5216 19.5725 14.4463 20.7527C13.912 21.339 13.4295 21.8053 13.0391 22.0955C12.8493 22.2365 12.6452 22.3637 12.4443 22.4275C12.2644 22.4846 11.9163 22.5324 11.6611 22.2595L11.6602 22.2605C11.6532 22.2536 11.6474 22.2453 11.6406 22.238C11.6345 22.231 11.6271 22.225 11.6211 22.2175L11.6221 22.2166C11.514 22.0911 11.4288 21.9231 11.3662 21.7839C11.2853 21.604 11.1977 21.3765 11.1055 21.113C10.9204 20.5843 10.7052 19.8782 10.4727 19.0515C10.1235 17.8101 9.73134 16.2808 9.33984 14.6375L8.9502 12.9626L8.94922 12.9558C7.92116 8.12392 7.08171 4.95565 6.26758 3.00171C5.86024 2.02409 5.4757 1.39289 5.10938 1.01147C4.75784 0.645569 4.43767 0.523193 4.11621 0.523193C4.11485 0.522768 4.11615 0.520264 4.10352 0.531006C4.07803 0.552705 4.02157 0.616043 3.95312 0.77124C3.81331 1.08841 3.68469 1.6427 3.58301 2.53882C3.38135 4.31626 3.30371 7.2422 3.30371 11.8191V24.4841L2.54688 24.1052L-3.61426 21.0251C-5.30717 20.2043 -6.94435 19.4369 -8.23242 18.8757C-8.87715 18.5949 -9.4284 18.368 -9.85254 18.2126C-10.0649 18.1349 -10.2389 18.0772 -10.373 18.0398C-10.4399 18.0212 -10.4922 18.0091 -10.5312 18.0017C-10.5601 17.9963 -10.5756 17.9953 -10.5801 17.9949C-10.8233 17.9949 -10.9602 18.036 -11.0293 18.074C-11.0837 18.1039 -11.1058 18.1352 -11.1201 18.1824C-11.1651 18.3314 -11.1339 18.6876 -10.8096 19.3113C-10.1864 20.5096 -8.72837 22.23 -6.53613 24.1677C-4.94051 25.5575 -3.82296 26.6688 -3.2207 27.49C-2.92992 27.8865 -2.70207 28.29 -2.66016 28.6667C-2.6373 28.8724 -2.66721 29.1 -2.80273 29.3035C-2.93233 29.4979 -3.12028 29.6117 -3.30566 29.6765L-3.30469 29.6775C-3.74663 29.8432 -5.50073 30.3386 -7.95312 30.99C-10.4232 31.6461 -13.6389 32.4696 -17.0342 33.2927H-17.0332C-23.3673 34.8376 -27.1112 35.9299 -29.0293 36.864C-29.5036 37.095 -29.8449 37.3065 -30.0791 37.4988C-30.3148 37.6924 -30.4146 37.8446 -30.4531 37.95C-30.4999 38.0781 -30.4982 38.2765 -30.1943 38.6267L-30.0449 38.7859C-30.0547 38.7761 -30.0089 38.8205 -29.8145 38.8699C-29.6329 38.9159 -29.374 38.9541 -29.0234 38.9763C-28.3227 39.0207 -27.3218 38.9998 -25.9814 38.9041C-23.6391 38.7367 -20.3094 38.3441 -15.832 37.698L-13.8428 37.405H-13.8398C-9.518 36.7876 -5.52782 36.2981 -2.57715 36.0017C-1.10295 35.8536 0.118147 35.7537 0.993164 35.7097C1.42879 35.6878 1.78894 35.6792 2.05566 35.6873C2.18747 35.6912 2.31108 35.6993 2.41504 35.7156C2.4664 35.7236 2.52667 35.7357 2.58691 35.7556C2.63445 35.7713 2.74497 35.8113 2.8418 35.908L2.86816 35.9343L2.89062 35.9646C2.99622 36.1054 3.02149 36.2596 3.02832 36.3552C3.0357 36.4591 3.02555 36.5637 3.01074 36.658C2.98095 36.8475 2.91854 37.0712 2.83594 37.3123C2.66915 37.799 2.39571 38.4361 2.0459 39.1746C1.51963 40.2856 0.80567 41.6544 -0.0185547 43.1394L-0.876953 44.658L-0.881836 44.6667L-1.7832 46.1804C-2.65946 47.6631 -3.45264 49.0364 -4.08789 50.1433C-4.84537 51.4632 -5.39677 52.4356 -5.5791 52.7351C-5.57864 52.7449 -5.57812 52.7608 -5.57324 52.7839C-5.55768 52.8577 -5.5164 52.9655 -5.4375 53.1023C-5.28004 53.3752 -5.01351 53.6907 -4.68945 53.9685L-4.69043 53.9695C-4.42694 54.1881 -4.21726 54.2869 -4.02246 54.3181C-3.8287 54.3491 -3.58503 54.3227 -3.23535 54.1697C-2.5021 53.8488 -1.48599 53.0629 0.167969 51.616V51.615C1.30975 50.577 2.45466 49.6402 3.38379 48.9597C3.84739 48.6202 4.2651 48.3384 4.60645 48.1394C4.77646 48.0403 4.93689 47.956 5.08008 47.8953C5.20701 47.8414 5.38049 47.7791 5.55566 47.7791C5.86721 47.7792 6.07487 47.9942 6.16699 48.1013C6.28386 48.2372 6.39174 48.4131 6.49023 48.6023C6.68973 48.9855 6.90205 49.5188 7.11719 50.1511C7.4955 51.2632 7.90084 52.7359 8.27344 54.3689L8.43066 55.0779L8.43262 55.0867C9.30694 59.5097 10.0426 62.3576 10.8242 64.0945C11.2137 64.96 11.5961 65.5058 11.9756 65.8337C12.3389 66.1477 12.7175 66.278 13.1602 66.2781Z" stroke="black" stroke-width="1.04636"/>
</g>
<defs>
<filter id="filter0_d_1_1277" x="-31" y="6.10352e-05" width="79" height="70.8637" filterUnits="userSpaceOnUse" color-interpolation-filters="sRGB">
<feFlood flood-opacity="0" result="BackgroundImageFix"/>
<feColorMatrix in="SourceAlpha" type="matrix" values="0 0 0 0 0 0 0 0 0 0 0 0 0 0 0 0 0 0 127 0" result="hardAlpha"/>
<feOffset dy="4.06226"/>
<feComposite in2="hardAlpha" operator="out"/>
<feColorMatrix type="matrix" values="0 0 0 0 0.745098 0 0 0 0 0.74902 0 0 0 0 0.705882 0 0 0 1 0"/>
<feBlend mode="normal" in2="BackgroundImageFix" result="effect1_dropShadow_1_1277"/>
<feBlend mode="normal" in="SourceGraphic" in2="effect1_dropShadow_1_1277" result="shape"/>
</filter>
</defs>
</svg>
