<svg width="51" height="71" viewBox="0 0 51 71" fill="none" xmlns="http://www.w3.org/2000/svg">
<g filter="url(#filter0_d_1_1278)">
<path d="M33.7806 11.8188V23.6375L27.6143 20.5544C24.2228 18.91 21.0369 17.4712 20.4203 17.4712C18.0565 17.4712 19.7009 20.6571 24.12 24.5624C27.306 27.3373 28.4364 28.8788 27.5115 29.1872C26.6893 29.4955 20.6258 31.1398 13.8429 32.7842C1.20201 35.8673 -1.36728 37.2033 0.585378 39.156C1.30478 39.8754 6.23781 39.5671 17.2344 37.9227C25.8672 36.6895 33.1639 35.9701 33.4722 36.2784C33.7806 36.6895 32.0334 40.2865 29.6697 44.3973C27.2032 48.5082 25.1478 52.208 24.9422 52.5163C24.7367 52.9274 25.2505 53.7495 25.9699 54.3662C27.2032 55.3939 28.2309 54.88 31.5196 52.0024C33.7806 49.947 36.0415 48.3026 36.5554 48.3026C37.0692 48.3026 38.097 51.3858 38.9191 55.1883C40.6662 64.0267 41.8995 66.8015 44.1605 66.8015C46.9353 66.8015 47.4492 63.6156 46.627 51.7969C46.2159 45.8361 46.2159 41.1086 46.7298 41.1086C47.2436 41.1086 51.3545 42.753 55.8764 44.7056C64.8175 48.611 67.6951 49.1248 67.6951 46.8638C67.6951 44.8084 66.0508 43.3696 58.1374 37.9227C54.3349 35.4562 51.2517 33.0925 51.2517 32.7842C51.2517 32.4758 56.493 30.7287 62.8649 28.8788C74.2725 25.5902 79 23.432 79 21.5821C79 20.0405 72.5254 20.3488 62.2482 22.1987C57.3152 23.1236 52.896 23.6375 52.5877 23.2264C52.2794 22.9181 52.9988 20.246 54.2321 17.3684C58.8568 6.16635 55.9792 5.13863 48.7852 15.5186C46.1131 19.5266 43.4411 22.4042 43.03 21.8904C42.6189 21.4793 41.4884 17.3684 40.4607 12.8465C38.4053 3.18597 37.0692 6.10352e-05 35.1166 6.10352e-05C34.0889 6.10352e-05 33.7806 2.67212 33.7806 11.8188Z" fill="#F3ABCB"/>
<path d="M44.1602 66.2781C44.7414 66.2781 45.1358 66.1181 45.4395 65.7732C45.7684 65.3995 46.0461 64.7479 46.2266 63.6462C46.5424 61.7182 46.5276 58.6524 46.2432 53.95L46.1055 51.8328C45.8994 48.8452 45.7956 46.1586 45.8086 44.2136C45.8151 43.2444 45.8504 42.4433 45.9199 41.8767C45.9541 41.5982 46 41.3464 46.0664 41.1531C46.0986 41.0593 46.1472 40.9434 46.2266 40.8416C46.3066 40.7389 46.4726 40.5858 46.7295 40.5857C46.8787 40.5857 47.0687 40.6347 47.2285 40.6804C47.4127 40.7331 47.6439 40.8083 47.9121 40.9021C48.45 41.0901 49.161 41.3596 49.9922 41.6882C51.2401 42.1816 52.7694 42.8117 54.4111 43.5085L56.084 44.2253L56.0859 44.2263C60.5648 46.1826 63.4649 47.2614 65.2324 47.5828C66.1306 47.7461 66.6211 47.6892 66.8682 47.5632C67.041 47.4751 67.1718 47.3122 67.1719 46.864C67.1719 46.4307 67.0881 46.0422 66.8555 45.616C66.6159 45.177 66.2082 44.6785 65.5283 44.0486C64.3323 42.9404 62.3799 41.5009 59.2539 39.3298L57.8525 38.3621C55.9425 37.1231 54.2112 35.9077 52.9541 34.9617C52.3267 34.4895 51.8111 34.0796 51.4492 33.7644C51.2698 33.6082 51.1181 33.4674 51.0078 33.3484C50.9536 33.2899 50.8984 33.2246 50.8535 33.158C50.831 33.1246 50.8039 33.0808 50.7812 33.0291C50.7659 32.9941 50.7445 32.9362 50.7344 32.863L50.7285 32.7839L50.7324 32.7166C50.7509 32.5654 50.8274 32.4623 50.8613 32.4207C50.9086 32.3627 50.9606 32.3203 50.9971 32.2927C51.0718 32.2363 51.1612 32.1845 51.248 32.1394C51.4271 32.0464 51.6764 31.938 51.9766 31.8181C52.5812 31.5766 53.4467 31.2681 54.5029 30.9138C56.0896 30.3817 58.1232 29.7417 60.3867 29.0642L62.7188 28.3767L62.7197 28.3757C68.4201 26.7324 72.4231 25.3798 74.9941 24.2146C76.2823 23.6308 77.1813 23.1067 77.75 22.6365C78.327 22.1592 78.474 21.8125 78.4756 21.5857C78.4704 21.5781 78.4533 21.5543 78.4053 21.5212C78.2915 21.4431 78.077 21.3536 77.7217 21.28C77.018 21.1343 75.939 21.084 74.499 21.1414C71.6315 21.2555 67.4709 21.7902 62.3408 22.7136H62.3398C59.8664 23.1773 57.5161 23.5387 55.7402 23.7332C54.8539 23.8302 54.0985 23.8873 53.5381 23.8923C53.2604 23.8948 53.0124 23.8854 52.8135 23.8562C52.7147 23.8417 52.6091 23.8198 52.5117 23.7839C52.4386 23.757 52.3204 23.7023 52.2188 23.5955L52.2178 23.5964C52.1165 23.4951 52.0667 23.3787 52.041 23.2947C52.0143 23.2072 52.0025 23.1184 51.9971 23.0398C51.9863 22.8832 51.9988 22.7044 52.0225 22.5193C52.0703 22.1452 52.1773 21.665 52.3281 21.1208C52.6304 20.0301 53.1254 18.6233 53.748 17.1697V17.1687C54.8988 14.3813 55.5696 12.2572 55.8281 10.8025C55.9582 10.0704 55.9771 9.54695 55.9219 9.20776C55.8946 9.04051 55.8534 8.9441 55.8213 8.89429C55.7942 8.85232 55.7765 8.84688 55.7695 8.84448C55.7314 8.83149 55.5538 8.8129 55.1484 9.0437C54.7659 9.26153 54.278 9.64697 53.6885 10.2263C52.5141 11.3804 51.0084 13.2296 49.2207 15.8083C47.874 17.8285 46.5216 19.5725 45.4463 20.7527C44.912 21.339 44.4295 21.8053 44.0391 22.0955C43.8493 22.2365 43.6452 22.3637 43.4443 22.4275C43.2644 22.4846 42.9163 22.5324 42.6611 22.2595L42.6602 22.2605C42.6532 22.2536 42.6474 22.2453 42.6406 22.238C42.6345 22.231 42.6271 22.225 42.6211 22.2175L42.6221 22.2166C42.514 22.0911 42.4288 21.9231 42.3662 21.7839C42.2853 21.604 42.1977 21.3765 42.1055 21.113C41.9204 20.5843 41.7052 19.8782 41.4727 19.0515C41.1235 17.8101 40.7313 16.2808 40.3398 14.6375L39.9502 12.9626L39.9492 12.9558C38.9212 8.12392 38.0817 4.95565 37.2676 3.00171C36.8602 2.02409 36.4757 1.39289 36.1094 1.01147C35.7578 0.645569 35.4377 0.523193 35.1162 0.523193C35.1149 0.522768 35.1161 0.520264 35.1035 0.531006C35.078 0.552705 35.0216 0.616043 34.9531 0.77124C34.8133 1.08841 34.6847 1.6427 34.583 2.53882C34.3814 4.31626 34.3037 7.2422 34.3037 11.8191V24.4841L33.5469 24.1052L27.3857 21.0251C25.6928 20.2043 24.0557 19.4369 22.7676 18.8757C22.1229 18.5949 21.5716 18.368 21.1475 18.2126C20.9351 18.1349 20.7611 18.0772 20.627 18.0398C20.5601 18.0212 20.5078 18.0091 20.4688 18.0017C20.4399 17.9963 20.4244 17.9953 20.4199 17.9949C20.1767 17.9949 20.0398 18.036 19.9707 18.074C19.9163 18.1039 19.8942 18.1352 19.8799 18.1824C19.8349 18.3314 19.8661 18.6876 20.1904 19.3113C20.8136 20.5096 22.2716 22.23 24.4639 24.1677C26.0595 25.5575 27.177 26.6688 27.7793 27.49C28.0701 27.8865 28.2979 28.29 28.3398 28.6667C28.3627 28.8724 28.3328 29.1 28.1973 29.3035C28.0677 29.4979 27.8797 29.6117 27.6943 29.6765L27.6953 29.6775C27.2534 29.8432 25.4993 30.3386 23.0469 30.99C20.5768 31.6461 17.3611 32.4696 13.9658 33.2927H13.9668C7.63273 34.8376 3.88883 35.9299 1.9707 36.864C1.49638 37.095 1.15506 37.3065 0.920898 37.4988C0.685199 37.6924 0.5854 37.8446 0.546875 37.95C0.50006 38.0781 0.50179 38.2765 0.805664 38.6267L0.955078 38.7859C0.945275 38.7761 0.991121 38.8205 1.18555 38.8699C1.36709 38.9159 1.62598 38.9541 1.97656 38.9763C2.67727 39.0207 3.67817 38.9998 5.01855 38.9041C7.36095 38.7367 10.6906 38.3441 15.168 37.698L17.1572 37.405H17.1602C21.482 36.7876 25.4722 36.2981 28.4229 36.0017C29.8971 35.8536 31.1181 35.7537 31.9932 35.7097C32.4288 35.6878 32.7889 35.6792 33.0557 35.6873C33.1875 35.6912 33.3111 35.6993 33.415 35.7156C33.4664 35.7236 33.5267 35.7357 33.5869 35.7556C33.6344 35.7713 33.745 35.8113 33.8418 35.908L33.8682 35.9343L33.8906 35.9646C33.9962 36.1054 34.0215 36.2596 34.0283 36.3552C34.0357 36.4591 34.0255 36.5637 34.0107 36.658C33.981 36.8475 33.9185 37.0712 33.8359 37.3123C33.6691 37.799 33.3957 38.4361 33.0459 39.1746C32.5196 40.2856 31.8057 41.6544 30.9814 43.1394L30.123 44.658L30.1182 44.6667L29.2168 46.1804C28.3405 47.6631 27.5474 49.0364 26.9121 50.1433C26.1546 51.4632 25.6032 52.4356 25.4209 52.7351C25.4214 52.7449 25.4219 52.7608 25.4268 52.7839C25.4423 52.8577 25.4836 52.9655 25.5625 53.1023C25.72 53.3752 25.9865 53.6907 26.3105 53.9685L26.3096 53.9695C26.5731 54.1881 26.7827 54.2869 26.9775 54.3181C27.1713 54.3491 27.415 54.3227 27.7646 54.1697C28.4979 53.8488 29.514 53.0629 31.168 51.616V51.615C32.3098 50.577 33.4547 49.6402 34.3838 48.9597C34.8474 48.6202 35.2651 48.3384 35.6064 48.1394C35.7765 48.0403 35.9369 47.956 36.0801 47.8953C36.207 47.8414 36.3805 47.7791 36.5557 47.7791C36.8672 47.7792 37.0749 47.9942 37.167 48.1013C37.2839 48.2372 37.3917 48.4131 37.4902 48.6023C37.6897 48.9855 37.9021 49.5188 38.1172 50.1511C38.4955 51.2632 38.9008 52.7359 39.2734 54.3689L39.4307 55.0779L39.4326 55.0867C40.3069 59.5097 41.0426 62.3576 41.8242 64.0945C42.2137 64.96 42.5961 65.5058 42.9756 65.8337C43.3389 66.1477 43.7175 66.278 44.1602 66.2781Z" stroke="black" stroke-width="1.04636"/>
</g>
<defs>
<filter id="filter0_d_1_1278" x="0" y="6.10352e-05" width="79" height="70.8637" filterUnits="userSpaceOnUse" color-interpolation-filters="sRGB">
<feFlood flood-opacity="0" result="BackgroundImageFix"/>
<feColorMatrix in="SourceAlpha" type="matrix" values="0 0 0 0 0 0 0 0 0 0 0 0 0 0 0 0 0 0 127 0" result="hardAlpha"/>
<feOffset dy="4.06226"/>
<feComposite in2="hardAlpha" operator="out"/>
<feColorMatrix type="matrix" values="0 0 0 0 0.745098 0 0 0 0 0.74902 0 0 0 0 0.705882 0 0 0 1 0"/>
<feBlend mode="normal" in2="BackgroundImageFix" result="effect1_dropShadow_1_1278"/>
<feBlend mode="normal" in="SourceGraphic" in2="effect1_dropShadow_1_1278" result="shape"/>
</filter>
</defs>
</svg>
