<svg width="51" height="39" viewBox="0 0 51 39" fill="none" xmlns="http://www.w3.org/2000/svg">
<g filter="url(#filter0_d_1_1477)">
<path d="M33.7806 -20.1812V-8.3625L27.6143 -11.4456C24.2228 -13.09 21.0369 -14.5288 20.4203 -14.5288C18.0565 -14.5288 19.7009 -11.3429 24.12 -7.43756C27.306 -4.66273 28.4364 -3.12116 27.5115 -2.81284C26.6893 -2.50453 20.6258 -0.860188 13.8429 0.784157C1.20201 3.8673 -1.36728 5.20333 0.585378 7.15599C1.30478 7.87539 6.23781 7.56707 17.2344 5.92273C25.8672 4.68947 33.1639 3.97007 33.4722 4.27839C33.7806 4.68947 32.0334 8.28647 29.6697 12.3973C27.2032 16.5082 25.1478 20.208 24.9422 20.5163C24.7367 20.9274 25.2505 21.7495 25.9699 22.3662C27.2032 23.3939 28.2309 22.88 31.5196 20.0024C33.7806 17.947 36.0415 16.3026 36.5554 16.3026C37.0692 16.3026 38.097 19.3858 38.9191 23.1883C40.6662 32.0267 41.8995 34.8015 44.1605 34.8015C46.9353 34.8015 47.4492 31.6156 46.627 19.7969C46.2159 13.8361 46.2159 9.10865 46.7298 9.10865C47.2436 9.10865 51.3545 10.753 55.8764 12.7056C64.8175 16.611 67.6951 17.1248 67.6951 14.8638C67.6951 12.8084 66.0508 11.3696 58.1374 5.92273C54.3349 3.45621 51.2517 1.09247 51.2517 0.784157C51.2517 0.475842 56.493 -1.27127 62.8649 -3.12116C74.2725 -6.40984 79 -8.56805 79 -10.4179C79 -11.9595 72.5254 -11.6512 62.2482 -9.8013C57.3152 -8.87636 52.896 -8.3625 52.5877 -8.77359C52.2794 -9.0819 52.9988 -11.754 54.2321 -14.6316C58.8568 -25.8337 55.9792 -26.8614 48.7852 -16.4814C46.1131 -12.4734 43.4411 -9.59576 43.03 -10.1096C42.6189 -10.5207 41.4884 -14.6316 40.4607 -19.1535C38.4053 -28.814 37.0692 -31.9999 35.1166 -31.9999C34.0889 -31.9999 33.7806 -29.3279 33.7806 -20.1812Z" fill="#F3ABCB"/>
<path d="M44.1602 34.2781C44.7414 34.2781 45.1358 34.1181 45.4395 33.7732C45.7684 33.3995 46.0461 32.7479 46.2266 31.6462C46.5424 29.7182 46.5276 26.6524 46.2432 21.95L46.1055 19.8328C45.8994 16.8452 45.7956 14.1586 45.8086 12.2136C45.8151 11.2444 45.8504 10.4433 45.9199 9.87671C45.9541 9.59815 46 9.34642 46.0664 9.15308C46.0986 9.05926 46.1472 8.94344 46.2266 8.84155C46.3066 8.73887 46.4726 8.5858 46.7295 8.58569C46.8787 8.58569 47.0687 8.63469 47.2285 8.68042C47.4127 8.73312 47.6439 8.80834 47.9121 8.9021C48.45 9.09012 49.161 9.35964 49.9922 9.68823C51.2401 10.1816 52.7694 10.8117 54.4111 11.5085L56.084 12.2253L56.0859 12.2263C60.5648 14.1826 63.4649 15.2614 65.2324 15.5828C66.1306 15.7461 66.6211 15.6892 66.8682 15.5632C67.041 15.4751 67.1718 15.3122 67.1719 14.864C67.1719 14.4307 67.0881 14.0422 66.8555 13.616C66.6159 13.177 66.2082 12.6785 65.5283 12.0486C64.3323 10.9404 62.3799 9.50092 59.2539 7.32983L57.8525 6.36206C55.9425 5.12309 54.2112 3.90771 52.9541 2.96167C52.3267 2.48948 51.8111 2.07958 51.4492 1.7644C51.2698 1.60816 51.1181 1.46736 51.0078 1.34839C50.9536 1.28987 50.8984 1.22457 50.8535 1.15796C50.831 1.1246 50.8039 1.08083 50.7812 1.02905C50.7659 0.994077 50.7445 0.936229 50.7344 0.863037L50.7285 0.783936L50.7324 0.716553C50.7509 0.565351 50.8274 0.462335 50.8613 0.420654C50.9086 0.362676 50.9606 0.320251 50.9971 0.292725C51.0718 0.236256 51.1612 0.184534 51.248 0.139404C51.4271 0.0464234 51.6764 -0.0619852 51.9766 -0.181885C52.5812 -0.42339 53.4467 -0.731942 54.5029 -1.08618C56.0896 -1.61828 58.1232 -2.25832 60.3867 -2.93579L62.7188 -3.62329L62.7197 -3.62427C68.4201 -5.26761 72.4231 -6.62022 74.9941 -7.7854C76.2823 -8.3692 77.1813 -8.89329 77.75 -9.36353C78.327 -9.84076 78.474 -10.1875 78.4756 -10.4143C78.4704 -10.4219 78.4533 -10.4457 78.4053 -10.4788C78.2915 -10.5569 78.077 -10.6464 77.7217 -10.72C77.018 -10.8657 75.939 -10.916 74.499 -10.8586C71.6315 -10.7445 67.4709 -10.2098 62.3408 -9.28638H62.3398C59.8664 -8.82272 57.5161 -8.46128 55.7402 -8.26685C54.8539 -8.16981 54.0985 -8.11271 53.5381 -8.10767C53.2604 -8.10517 53.0124 -8.11463 52.8135 -8.1438C52.7147 -8.15831 52.6091 -8.18022 52.5117 -8.21606C52.4386 -8.24301 52.3204 -8.2977 52.2188 -8.40454L52.2178 -8.40356C52.1165 -8.50485 52.0667 -8.6213 52.041 -8.70532C52.0143 -8.79282 52.0025 -8.8816 51.9971 -8.96021C51.9863 -9.1168 51.9988 -9.29565 52.0225 -9.48071C52.0703 -9.85483 52.1773 -10.335 52.3281 -10.8792C52.6304 -11.9699 53.1254 -13.3767 53.748 -14.8303V-14.8313C54.8988 -17.6187 55.5696 -19.7428 55.8281 -21.1975C55.9582 -21.9296 55.9771 -22.453 55.9219 -22.7922C55.8946 -22.9595 55.8534 -23.0559 55.8213 -23.1057C55.7942 -23.1477 55.7765 -23.1531 55.7695 -23.1555C55.7314 -23.1685 55.5538 -23.1871 55.1484 -22.9563C54.7659 -22.7385 54.278 -22.353 53.6885 -21.7737C52.5141 -20.6196 51.0084 -18.7704 49.2207 -16.1917C47.874 -14.1715 46.5216 -12.4275 45.4463 -11.2473C44.912 -10.661 44.4295 -10.1947 44.0391 -9.90454C43.8493 -9.76354 43.6452 -9.63631 43.4443 -9.57251C43.2644 -9.51538 42.9163 -9.46764 42.6611 -9.74048L42.6602 -9.7395C42.6532 -9.74642 42.6474 -9.75468 42.6406 -9.76196C42.6345 -9.76902 42.6271 -9.77502 42.6211 -9.78247L42.6221 -9.78345C42.514 -9.90886 42.4288 -10.0769 42.3662 -10.2161C42.2853 -10.396 42.1977 -10.6235 42.1055 -10.887C41.9204 -11.4157 41.7052 -12.1218 41.4727 -12.9485C41.1235 -14.1899 40.7313 -15.7192 40.3398 -17.3625L39.9502 -19.0374L39.9492 -19.0442C38.9212 -23.8761 38.0817 -27.0444 37.2676 -28.9983C36.8602 -29.9759 36.4757 -30.6071 36.1094 -30.9885C35.7578 -31.3544 35.4377 -31.4768 35.1162 -31.4768C35.1149 -31.4772 35.1161 -31.4797 35.1035 -31.469C35.078 -31.4473 35.0216 -31.384 34.9531 -31.2288C34.8133 -30.9116 34.6847 -30.3573 34.583 -29.4612C34.3814 -27.6837 34.3037 -24.7578 34.3037 -20.1809V-7.51587L33.5469 -7.89478L27.3857 -10.9749C25.6928 -11.7957 24.0557 -12.5631 22.7676 -13.1243C22.1229 -13.4051 21.5716 -13.632 21.1475 -13.7874C20.9351 -13.8651 20.7611 -13.9228 20.627 -13.9602C20.5601 -13.9788 20.5078 -13.9909 20.4688 -13.9983C20.4399 -14.0037 20.4244 -14.0047 20.4199 -14.0051C20.1767 -14.0051 20.0398 -13.964 19.9707 -13.926C19.9163 -13.8961 19.8942 -13.8648 19.8799 -13.8176C19.8349 -13.6686 19.8661 -13.3124 20.1904 -12.6887C20.8136 -11.4904 22.2716 -9.76997 24.4639 -7.83228C26.0595 -6.44253 27.177 -5.33119 27.7793 -4.51001C28.0701 -4.11349 28.2979 -3.70999 28.3398 -3.33325C28.3627 -3.12757 28.3328 -2.9 28.1973 -2.69653C28.0677 -2.50214 27.8797 -2.38833 27.6943 -2.32349L27.6953 -2.32251C27.2534 -2.15679 25.4993 -1.66143 23.0469 -1.01001C20.5768 -0.353899 17.3611 0.469628 13.9658 1.29272H13.9668C7.63273 2.83762 3.88883 3.92991 1.9707 4.86401C1.49638 5.09502 1.15506 5.30648 0.920898 5.49878C0.685199 5.69235 0.5854 5.84457 0.546875 5.94995C0.50006 6.07811 0.50179 6.27654 0.805664 6.62671L0.955078 6.78589C0.945275 6.77608 0.991121 6.82049 1.18555 6.86987C1.36709 6.91594 1.62598 6.95411 1.97656 6.97632C2.67727 7.02069 3.67817 6.99979 5.01855 6.90405C7.36095 6.73674 10.6906 6.3441 15.168 5.698L17.1572 5.40503H17.1602C21.482 4.78762 25.4722 4.29806 28.4229 4.00171C29.8971 3.85365 31.1181 3.75371 31.9932 3.70972C32.4288 3.68782 32.7889 3.67921 33.0557 3.68726C33.1875 3.69124 33.3111 3.69928 33.415 3.71558C33.4664 3.72363 33.5267 3.73573 33.5869 3.75562C33.6344 3.77133 33.745 3.81135 33.8418 3.90796L33.8682 3.93433L33.8906 3.9646C33.9962 4.10539 34.0215 4.25956 34.0283 4.35522C34.0357 4.45909 34.0255 4.56366 34.0107 4.65796C33.981 4.84754 33.9185 5.0712 33.8359 5.31226C33.6691 5.79897 33.3957 6.43606 33.0459 7.17456C32.5196 8.28556 31.8057 9.65437 30.9814 11.1394L30.123 12.658L30.1182 12.6667L29.2168 14.1804C28.3405 15.6631 27.5474 17.0364 26.9121 18.1433C26.1546 19.4632 25.6032 20.4356 25.4209 20.7351C25.4214 20.7449 25.4219 20.7608 25.4268 20.7839C25.4423 20.8577 25.4836 20.9655 25.5625 21.1023C25.72 21.3752 25.9865 21.6907 26.3105 21.9685L26.3096 21.9695C26.5731 22.1881 26.7827 22.2869 26.9775 22.3181C27.1713 22.3491 27.415 22.3227 27.7646 22.1697C28.4979 21.8488 29.514 21.0629 31.168 19.616V19.615C32.3098 18.577 33.4547 17.6402 34.3838 16.9597C34.8474 16.6202 35.2651 16.3384 35.6064 16.1394C35.7765 16.0403 35.9369 15.956 36.0801 15.8953C36.207 15.8414 36.3805 15.7791 36.5557 15.7791C36.8672 15.7792 37.0749 15.9942 37.167 16.1013C37.2839 16.2372 37.3917 16.4131 37.4902 16.6023C37.6897 16.9855 37.9021 17.5188 38.1172 18.1511C38.4955 19.2632 38.9008 20.7359 39.2734 22.3689L39.4307 23.0779L39.4326 23.0867C40.3069 27.5097 41.0426 30.3576 41.8242 32.0945C42.2137 32.96 42.5961 33.5058 42.9756 33.8337C43.3389 34.1477 43.7175 34.278 44.1602 34.2781Z" stroke="black" stroke-width="1.04636"/>
</g>
<defs>
<filter id="filter0_d_1_1477" x="0" y="-32" width="79" height="70.8638" filterUnits="userSpaceOnUse" color-interpolation-filters="sRGB">
<feFlood flood-opacity="0" result="BackgroundImageFix"/>
<feColorMatrix in="SourceAlpha" type="matrix" values="0 0 0 0 0 0 0 0 0 0 0 0 0 0 0 0 0 0 127 0" result="hardAlpha"/>
<feOffset dy="4.06226"/>
<feComposite in2="hardAlpha" operator="out"/>
<feColorMatrix type="matrix" values="0 0 0 0 0.745098 0 0 0 0 0.74902 0 0 0 0 0.705882 0 0 0 1 0"/>
<feBlend mode="normal" in2="BackgroundImageFix" result="effect1_dropShadow_1_1477"/>
<feBlend mode="normal" in="SourceGraphic" in2="effect1_dropShadow_1_1477" result="shape"/>
</filter>
</defs>
</svg>
