<svg width="52" height="53" viewBox="0 0 52 53" fill="none" xmlns="http://www.w3.org/2000/svg">
<rect x="1.31538" y="1.74103" width="49.4955" height="49.4955" rx="24.7477" fill="#C5A1FF"/>
<rect x="1.31538" y="1.74103" width="49.4955" height="49.4955" rx="24.7477" stroke="black" stroke-width="2.21622"/>
<path d="M27.9874 9.55468C27.8648 9.82886 27.8124 11.7325 27.8426 13.7671L27.9079 17.5095L26.6351 17.8332C25.9115 17.9797 25.2447 18.1045 25.1272 18.0519C25.0097 17.9994 24.7962 16.1648 24.5877 14.0035C24.2998 10.4435 23.6378 8.45544 22.8443 8.75854C22.6917 8.78433 22.3508 11.123 22.0656 13.8625L21.5704 18.8583L18.3002 20.0749C15.3485 21.1048 15.0867 21.2698 15.8175 21.7376C16.235 22.0653 17.5893 22.295 18.8004 22.3196C20.0289 22.3051 21.0483 22.3379 21.1266 22.373C21.4008 22.4956 21.2797 27.7057 20.9995 28.3323C20.8418 28.6849 19.5638 29.3354 18.1426 29.7808C16.6822 30.2087 15.6134 30.8117 15.7 31.0385C15.7866 31.2652 16.9534 31.599 18.2644 31.7153C19.6146 31.8492 20.8164 32.1046 20.9814 32.3664C21.1638 32.589 21.4372 34.9204 21.588 37.5259C21.9885 43.2513 22.5947 44.8385 23.853 43.2861C24.1807 42.8687 24.6443 40.2558 24.882 37.307L25.3473 32.0629L26.581 31.7216L27.7971 31.4195L28.0522 35.9988C28.2185 39.4103 28.4856 40.7048 29.034 40.95C30.0915 41.423 30.9241 39.3512 31.6718 34.4214C31.9818 32.257 32.3083 30.4759 32.4042 30.4718C33.7461 30.4139 38.2067 28.7427 38.4519 28.1943C38.9074 27.176 38.1673 26.939 35.0083 27.1713L32.2502 27.3478L32.0829 24.3589C31.991 22.6727 31.8857 21.1215 31.8774 20.9298C31.8867 20.699 33.1863 20.1051 34.7384 19.5773C36.2906 19.0494 37.6644 18.3947 37.7695 18.1597C38.225 17.1414 36.919 16.6983 34.3176 16.945C32.8448 17.0853 31.5029 17.1432 31.3462 17.0731C31.1504 16.9855 30.6441 15.4901 30.1647 13.7246C29.3099 10.3811 28.3903 8.65382 27.9874 9.55468ZM27.9085 22.868C28.0158 23.574 28.0386 24.9942 27.9491 26.0352C27.8318 27.7688 27.705 27.9472 26.8856 28.0977C26.4105 28.2142 25.8354 28.239 25.6787 28.169C25.4829 28.0814 25.3034 26.591 25.229 24.8657C25.1359 21.8159 25.1317 21.7201 26.1212 21.5046C27.5115 21.2333 27.6507 21.3426 27.9085 22.868Z" fill="black"/>
</svg>
