<svg width="52" height="53" viewBox="0 0 52 53" fill="none" xmlns="http://www.w3.org/2000/svg">
<rect x="1.25341" y="1.6025" width="49.3446" height="49.3446" rx="24.6723" fill="#FF6258"/>
<rect x="1.25341" y="1.6025" width="49.3446" height="49.3446" rx="24.6723" stroke="black" stroke-width="2.20946"/>
<path d="M28.0579 10.6756C25.9741 11.6167 23.6887 14.7424 22.5796 18.1705L22.1763 19.4477L20.2269 19.4141C17.6726 19.3805 16.2946 20.0863 15.4544 21.9012C13.2026 26.909 17.8407 37.2607 24.3273 41.7307C26.6463 43.344 26.9488 43.2095 29.2007 39.8486C33.1666 33.9333 35.0487 30.001 36.2922 25.1613C38.7121 15.5154 34.3765 7.81881 28.0579 10.6756ZM31.923 12.8938C33.301 13.5996 34.3093 15.9187 34.5446 18.8427C34.8806 23.6489 32.6624 29.9002 28.0579 37.1598C26.848 39.0756 25.7389 40.6216 25.5708 40.6216C24.865 40.6216 21.2016 36.0843 19.9581 33.6981C16.0258 26.1696 16.5299 20.4223 21 22.1364C21.6049 22.3717 21.9074 22.775 22.0418 23.7161C22.714 27.7156 24.7306 30.8749 26.6127 30.8749C27.8227 30.8749 28.5957 29.7658 28.5957 28.0181C28.5621 26.2368 27.621 24.1866 25.9069 22.3381L24.4953 20.7921L24.865 19.246C25.8061 15.549 28.2932 12.4569 30.377 12.3897C30.7131 12.3897 31.4189 12.625 31.923 12.8938Z" fill="black"/>
</svg>
