<svg width="30" height="30" viewBox="0 0 30 30" fill="none" xmlns="http://www.w3.org/2000/svg">
<path d="M15.1558 10.5565C14.0184 10.5565 12.9276 11.0083 12.1233 11.8126C11.3191 12.6168 10.8672 13.7077 10.8672 14.8451C10.8672 15.9825 11.3191 17.0733 12.1233 17.8775C12.9276 18.6818 14.0184 19.1336 15.1558 19.1336C16.2932 19.1336 17.384 18.6818 18.1883 17.8775C18.9925 17.0733 19.4444 15.9825 19.4444 14.8451C19.4444 13.7077 18.9925 12.6168 18.1883 11.8126C17.384 11.0083 16.2932 10.5565 15.1558 10.5565ZM15.1558 7.69743C17.0515 7.69743 18.8695 8.45048 20.2099 9.79092C21.5504 11.1314 22.3034 12.9494 22.3034 14.8451C22.3034 16.7407 21.5504 18.5587 20.2099 19.8992C18.8695 21.2396 17.0515 21.9927 15.1558 21.9927C13.2601 21.9927 11.4421 21.2396 10.1017 19.8992C8.76124 18.5587 8.00818 16.7407 8.00818 14.8451C8.00818 12.9494 8.76124 11.1314 10.1017 9.79092C11.4421 8.45048 13.2601 7.69743 15.1558 7.69743ZM24.4477 7.34005C24.4477 7.81396 24.2595 8.26847 23.9243 8.60358C23.5892 8.93869 23.1347 9.12695 22.6608 9.12695C22.1869 9.12695 21.7324 8.93869 21.3973 8.60358C21.0622 8.26847 20.8739 7.81396 20.8739 7.34005C20.8739 6.86613 21.0622 6.41162 21.3973 6.07651C21.7324 5.7414 22.1869 5.55314 22.6608 5.55314C23.1347 5.55314 23.5892 5.7414 23.9243 6.07651C24.2595 6.41162 24.4477 6.86613 24.4477 7.34005ZM15.1558 3.40885C11.6192 3.40885 11.0416 3.41886 9.39625 3.49177C8.27551 3.54466 7.52357 3.69476 6.82597 3.96637C6.24217 4.18071 5.71439 4.52426 5.28208 4.97132C4.83465 5.40361 4.49063 5.93137 4.27569 6.51521C4.00408 7.21568 3.85399 7.96618 3.80252 9.0855C3.72819 10.6637 3.71818 11.2155 3.71818 14.8451C3.71818 18.3831 3.72819 18.9592 3.80109 20.6046C3.85399 21.7239 4.00409 22.4773 4.27427 23.1735C4.51728 23.7953 4.80319 24.2427 5.27779 24.7173C5.75954 25.1977 6.20698 25.485 6.82168 25.7223C7.52786 25.9953 8.27979 26.1469 9.39482 26.1983C10.973 26.2727 11.5248 26.2812 15.1544 26.2812C18.6925 26.2812 19.2685 26.2712 20.9139 26.1983C22.0318 26.1454 22.7838 25.9953 23.4828 25.7252C24.0661 25.5098 24.5936 25.1664 25.0267 24.7202C25.5084 24.2399 25.7958 23.7924 26.0331 23.1763C26.3047 22.473 26.4562 21.7211 26.5077 20.6032C26.582 19.0264 26.5906 18.4732 26.5906 14.8451C26.5906 11.3084 26.5806 10.7309 26.5077 9.0855C26.4548 7.96761 26.3032 7.21282 26.0331 6.51521C25.8176 5.93199 25.4742 5.40444 25.0281 4.97132C24.596 4.52366 24.0682 4.17961 23.4842 3.96494C22.7838 3.69333 22.0318 3.54323 20.9139 3.49177C19.3372 3.41743 18.7854 3.40885 15.1544 3.40885M15.1544 0.549805C19.0384 0.549805 19.523 0.5641 21.0483 0.635576C22.5693 0.707052 23.6072 0.945783 24.5178 1.30031C25.4612 1.6634 26.2561 2.15516 27.0509 2.94855C27.7778 3.66316 28.3402 4.52758 28.6991 5.48166C29.0522 6.39227 29.2924 7.43011 29.3639 8.95255C29.431 10.4764 29.4496 10.961 29.4496 14.8451C29.4496 18.7291 29.4353 19.2137 29.3639 20.7376C29.2924 22.26 29.0522 23.2964 28.6991 24.2084C28.3412 25.163 27.7786 26.0276 27.0509 26.7416C26.3361 27.4682 25.4717 28.0306 24.5178 28.3898C23.6072 28.7429 22.5693 28.9831 21.0483 29.0545C19.523 29.1217 19.0384 29.1403 15.1544 29.1403C11.2704 29.1403 10.7858 29.126 9.26045 29.0545C7.73943 28.9831 6.70303 28.7429 5.79099 28.3898C4.83653 28.0317 3.97196 27.4691 3.25787 26.7416C2.53086 26.027 1.96838 25.1626 1.60963 24.2084C1.25511 23.2978 1.01638 22.26 0.944902 20.7376C0.876285 19.2137 0.859131 18.7291 0.859131 14.8451C0.859131 10.961 0.873426 10.4764 0.944902 8.95255C1.01638 7.43011 1.25511 6.3937 1.60963 5.48166C1.96735 4.527 2.52996 3.66234 3.25787 2.94855C3.97217 2.22125 4.83668 1.65873 5.79099 1.30031C6.7016 0.945783 7.738 0.707052 9.26045 0.635576C10.7872 0.568388 11.2718 0.549805 15.1558 0.549805" fill="black"/>
</svg>
