<svg width="83" height="74" viewBox="0 0 83 74" fill="none" xmlns="http://www.w3.org/2000/svg">
<g filter="url(#filter0_d_1_1259)">
<path d="M35.5373 13.0526V25.2488L29.1741 22.0672C25.6743 20.3703 22.3867 18.8856 21.7504 18.8856C19.3111 18.8856 21.008 22.1732 25.5683 26.2033C28.856 29.0667 30.0225 30.6575 29.0681 30.9757C28.2196 31.2938 21.9625 32.9907 14.9629 34.6876C1.91837 37.8692 -0.732965 39.2479 1.28205 41.2629C2.02443 42.0052 7.11499 41.6871 18.4627 39.9902C27.3712 38.7176 34.901 37.9752 35.2192 38.2934C35.5373 38.7176 33.7344 42.4295 31.2952 46.6716C28.7499 50.9137 26.6288 54.7317 26.4167 55.0498C26.2046 55.474 26.7349 56.3225 27.4773 56.9588C28.7499 58.0193 29.8104 57.4891 33.2041 54.5196C35.5373 52.3985 37.8705 50.7016 38.4008 50.7016C38.931 50.7016 39.9916 53.8832 40.84 57.8072C42.6429 66.9278 43.9155 69.7913 46.2487 69.7913C49.1122 69.7913 49.6424 66.5036 48.794 54.3075C48.3698 48.1563 48.3698 43.2779 48.9001 43.2779C49.4303 43.2779 53.6725 44.9747 58.3388 46.9898C67.5655 51.0198 70.535 51.5501 70.535 49.2169C70.535 47.0958 68.8381 45.6111 60.672 39.9902C56.748 37.445 53.5664 35.0057 53.5664 34.6876C53.5664 34.3694 58.9751 32.5665 65.5505 30.6575C77.3224 27.2638 82.2009 25.0367 82.2009 23.1277C82.2009 21.5369 75.5195 21.8551 64.9141 23.764C59.8236 24.7185 55.2633 25.2488 54.9451 24.8246C54.6269 24.5064 55.3693 21.749 56.642 18.7795C61.4144 7.21971 58.4449 6.15917 51.0211 16.8706C48.2637 21.0067 45.5063 23.9762 45.0821 23.4459C44.6579 23.0217 43.4913 18.7795 42.4308 14.1132C40.3097 4.14416 38.931 0.856499 36.916 0.856499C35.8555 0.856499 35.5373 3.61389 35.5373 13.0526Z" fill="#FF6258"/>
<path d="M46.2483 68.9817C46.79 68.9817 47.1151 68.8363 47.3655 68.552C47.6551 68.223 47.9312 67.611 48.1145 66.4924C48.4353 64.5347 48.4224 61.3989 48.1292 56.5491L47.9866 54.3635C47.7737 51.2769 47.6655 48.4971 47.679 46.4807C47.6856 45.4773 47.7224 44.6378 47.7961 44.0374C47.8321 43.7446 47.8824 43.4631 47.9602 43.2366C47.9976 43.1275 48.0596 42.9756 48.1682 42.8362C48.2777 42.6958 48.5186 42.4682 48.8997 42.468C49.0976 42.468 49.33 42.5308 49.4895 42.5764C49.6866 42.6328 49.9303 42.7123 50.2092 42.8098C50.7693 43.0056 51.5073 43.2856 52.3665 43.6252C53.6566 44.1353 55.2364 44.7864 56.9319 45.5061L58.6594 46.2463L58.6633 46.2473C63.2895 48.2679 66.2542 49.3675 68.0422 49.6926C68.9583 49.8591 69.3876 49.7857 69.5588 49.6985C69.6153 49.6697 69.7248 49.6193 69.7249 49.217C69.7249 48.8114 69.6476 48.4559 69.4309 48.0588C69.2034 47.642 68.8066 47.1504 68.1155 46.51C66.8963 45.3803 64.8968 43.9056 61.6711 41.6653L60.2131 40.6575C58.2448 39.3801 56.4592 38.1281 55.1604 37.1506C54.5107 36.6617 53.9734 36.2339 53.593 35.9026C53.4051 35.7389 53.2399 35.5865 53.1165 35.4534C53.0562 35.3884 52.9893 35.3098 52.9319 35.2249C52.9031 35.1821 52.8663 35.1214 52.8342 35.0481C52.8128 34.9991 52.7799 34.9145 52.7649 34.8049L52.7561 34.6877L52.7629 34.5842C52.7911 34.3549 52.9064 34.2007 52.9543 34.1418C53.0223 34.0585 53.0948 33.9999 53.1409 33.9651C53.236 33.8932 53.3443 33.8315 53.4387 33.7825C53.6355 33.6803 53.9021 33.5643 54.2141 33.4397C54.8451 33.1877 55.7436 32.8673 56.8352 32.5012C58.4761 31.9509 60.578 31.2899 62.9163 30.5901L65.3245 29.8801L65.3264 29.8792C71.2071 28.1838 75.3222 26.7917 77.9563 25.5979C79.2772 24.9992 80.179 24.4707 80.7385 24.0081C81.1673 23.6535 81.3187 23.4022 81.3684 23.2502C81.2714 23.2011 81.1015 23.1371 80.8274 23.0803C80.1342 22.9368 79.0467 22.8837 77.5667 22.9426C74.9937 23.0451 71.3961 23.4784 66.9934 24.2229L65.0579 24.5608C62.5012 25.0401 60.069 25.4149 58.2278 25.6165C57.3098 25.717 56.5195 25.7762 55.928 25.7815C55.6358 25.7841 55.3635 25.7746 55.1379 25.7415C55.0263 25.7251 54.8982 25.6984 54.7737 25.6526C54.6681 25.6137 54.4562 25.5229 54.2971 25.3108H54.2981C54.2021 25.1883 54.1507 25.0636 54.1233 24.9739C54.0878 24.8576 54.0731 24.7444 54.0667 24.6506C54.0539 24.464 54.0685 24.2599 54.094 24.0608C54.1457 23.6566 54.2591 23.1474 54.4163 22.5803C54.693 21.5817 55.1239 20.334 55.6614 19.0247L55.8977 18.4602C57.0799 15.5954 57.7623 13.4275 58.0237 11.9563C58.1558 11.2125 58.1692 10.7075 58.1194 10.4016C58.1096 10.3413 58.095 10.2971 58.0852 10.2639C58.016 10.2824 57.898 10.3223 57.7209 10.4231C57.355 10.6315 56.8705 11.0114 56.2698 11.6018C55.0739 12.777 53.5298 14.6731 51.6868 17.3323H51.6858C50.2934 19.4196 48.8943 21.2256 47.7756 22.4534C47.2204 23.0628 46.7083 23.5593 46.2844 23.8743C46.0809 24.0255 45.8414 24.1776 45.5911 24.2571C45.3736 24.3261 44.8881 24.4057 44.5217 24.0325L44.509 24.0188C44.5061 24.0159 44.5031 24.013 44.5002 24.01C44.4832 23.9916 44.4659 23.972 44.4495 23.9514L44.4504 23.9504C44.3125 23.7873 44.2139 23.585 44.1516 23.4465C44.0635 23.2508 43.9697 23.0081 43.8733 22.7327C43.6797 22.1794 43.4557 21.4445 43.2151 20.5891C42.8536 19.3039 42.4488 17.7221 42.0442 16.0237L41.6409 14.2922L41.6389 14.2815C40.5778 9.29446 39.7153 6.04832 38.886 4.05786C38.4708 3.06132 38.0896 2.44551 37.7454 2.08716C37.4769 1.80767 37.2493 1.70335 37.0383 1.67603C37.0266 1.69801 37.0104 1.72565 36.9944 1.76196C36.8675 2.04997 36.7384 2.58683 36.634 3.5061C36.4279 5.32276 36.3469 8.32755 36.3469 13.053V26.5588L35.175 25.9729L28.8206 22.7961C27.0749 21.9498 25.3891 21.1592 24.0647 20.5823C23.4017 20.2934 22.8387 20.0622 22.4084 19.9045C22.1927 19.8255 22.0198 19.7686 21.8909 19.7327C21.7924 19.7053 21.7458 19.6985 21.7366 19.6965C21.5803 19.6977 21.4921 19.7199 21.4485 19.7346C21.4433 19.8358 21.473 20.1206 21.7532 20.6594C22.3735 21.8523 23.8489 23.6034 26.1047 25.5969L26.1038 25.5979C27.7493 27.0314 28.9218 28.1921 29.5618 29.0647C29.8661 29.4797 30.1391 29.9455 30.1907 30.4094C30.2194 30.6682 30.1837 30.9712 30.0002 31.2463C29.8269 31.5062 29.5802 31.6527 29.3518 31.7336H29.3528C29.3488 31.7351 29.3443 31.737 29.3401 31.7385C29.3348 31.7403 29.3297 31.7426 29.3245 31.7444H29.3235C28.8097 31.9307 27.0052 32.4396 24.5305 33.0969C21.9797 33.7745 18.6592 34.625 15.1536 35.4749H15.1526C8.61012 37.0706 4.77735 38.1922 2.82935 39.1409C2.35048 39.3741 2.01932 39.5819 1.80005 39.762C1.5785 39.9439 1.5128 40.063 1.49536 40.1106C1.48677 40.1341 1.47929 40.1588 1.50806 40.2307C1.5443 40.3212 1.63329 40.4632 1.82446 40.6594C1.84294 40.6675 1.88633 40.6858 1.96704 40.7063C2.13198 40.7482 2.38195 40.7855 2.7356 40.8079C3.44076 40.8525 4.45955 40.8321 5.83813 40.7336C8.2459 40.5616 11.6741 40.1577 16.2913 39.4915L18.343 39.1897L18.3479 39.1887C22.8106 38.5512 26.9322 38.0458 29.9817 37.7395C31.5047 37.5865 32.7694 37.4825 33.679 37.4368C34.1312 37.414 34.512 37.4047 34.7981 37.4133C34.9383 37.4176 35.0782 37.4263 35.2014 37.4456C35.2624 37.4551 35.3415 37.4703 35.4231 37.4973C35.4851 37.5178 35.6474 37.5761 35.7922 37.7209L35.8323 37.761L35.8674 37.8079C36.0205 38.0122 36.053 38.2305 36.0618 38.3528C36.0714 38.4879 36.0593 38.6183 36.0422 38.7268C36.008 38.9451 35.9371 39.1928 35.8499 39.4475C35.6729 39.964 35.3853 40.6322 35.0227 41.3977C34.2945 42.9351 33.223 44.9438 31.9973 47.0754L31.9934 47.0823L31.9895 47.0881L31.0608 48.6487C30.1573 50.1775 29.3391 51.5938 28.6838 52.7356C27.9766 53.9679 27.4349 54.9208 27.1975 55.3215C27.2137 55.3677 27.2411 55.4345 27.2903 55.5198C27.4333 55.7676 27.6834 56.0672 27.9954 56.3362C28.2481 56.5468 28.4219 56.6208 28.5598 56.6428C28.694 56.6643 28.8919 56.652 29.2209 56.5081C29.9318 56.1969 30.9479 55.4182 32.6594 53.9211V53.9202C33.8436 52.8436 35.0325 51.8701 36.0002 51.1614C36.4825 50.8082 36.9219 50.5119 37.2854 50.3C37.4663 50.1946 37.6428 50.1023 37.8049 50.0334C37.9419 49.9753 38.1625 49.8919 38.4006 49.8918C38.8499 49.8918 39.1345 50.199 39.2366 50.3176C39.3768 50.4807 39.4991 50.6831 39.6047 50.886C39.8199 51.2992 40.0442 51.8643 40.2678 52.5217C40.7183 53.8459 41.2027 55.6545 41.6311 57.636L41.6331 57.6428L41.634 57.6506C42.5367 62.2168 43.292 65.1264 44.0842 66.887C44.4783 67.7626 44.8529 68.286 45.2024 68.5881C45.5271 68.8687 45.8547 68.9816 46.2483 68.9817Z" stroke="black" stroke-width="1.61966"/>
</g>
<defs>
<filter id="filter0_d_1_1259" x="0.677979" y="0.856506" width="81.5229" height="73.1267" filterUnits="userSpaceOnUse" color-interpolation-filters="sRGB">
<feFlood flood-opacity="0" result="BackgroundImageFix"/>
<feColorMatrix in="SourceAlpha" type="matrix" values="0 0 0 0 0 0 0 0 0 0 0 0 0 0 0 0 0 0 127 0" result="hardAlpha"/>
<feOffset dy="4.19199"/>
<feComposite in2="hardAlpha" operator="out"/>
<feColorMatrix type="matrix" values="0 0 0 0 0.745098 0 0 0 0 0.74902 0 0 0 0 0.705882 0 0 0 1 0"/>
<feBlend mode="normal" in2="BackgroundImageFix" result="effect1_dropShadow_1_1259"/>
<feBlend mode="normal" in="SourceGraphic" in2="effect1_dropShadow_1_1259" result="shape"/>
</filter>
</defs>
</svg>
