<svg width="35" height="33" viewBox="0 0 35 33" fill="none" xmlns="http://www.w3.org/2000/svg">
<path d="M18.5989 4.02837C17.7496 5.38401 18.9663 9.26877 20.684 10.7002C22.0017 11.7707 22.9766 11.2798 23.2333 9.40033C23.5282 7.41937 22.0767 4.60728 20.4245 3.90048C19.1656 3.34805 19.014 3.37592 18.5989 4.02837Z" fill="black"/>
<path d="M7.2542 4.92974C6.4049 6.28538 7.62156 10.1701 9.33931 11.6016C10.657 12.6721 11.6319 12.1812 11.8886 10.3017C12.1835 8.32074 10.732 5.50864 9.07981 4.80185C7.82085 4.24942 7.66929 4.27729 7.2542 4.92974Z" fill="black"/>
<path d="M2.4505 15.949C2.79872 18.095 6.78315 22.047 10.3252 23.7286C11.4175 24.2739 13.3018 24.6641 14.9677 24.7356C17.5839 24.8307 17.9553 24.7435 21.3348 23.1871C24.5777 21.6936 25.0788 21.337 26.6341 19.5304C28.6153 17.1922 30.5078 12.169 29.907 10.7684C29.3813 9.54276 28.618 10.1459 27.0887 13.1566C25.3956 16.4525 24.4521 17.6838 22.4817 19.0944C20.5988 20.4229 17.0773 21.4576 14.8625 21.3454C12.2313 21.2153 7.28423 18.5453 4.59426 15.8004C3.2247 14.4183 2.22109 14.4611 2.4505 15.949Z" fill="black"/>
</svg>
