<svg width="52" height="53" viewBox="0 0 52 53" fill="none" xmlns="http://www.w3.org/2000/svg">
<rect x="1.25419" y="2.0146" width="49.3466" height="49.3466" rx="24.6733" fill="#FFDC58"/>
<rect x="1.25419" y="2.0146" width="49.3466" height="49.3466" rx="24.6733" stroke="black" stroke-width="2.20955"/>
<path d="M25.9863 14.2472C25.4053 14.7037 24.2849 16.1561 23.5379 17.4425L22.1685 19.8079L17.6867 20.1399C12.4579 20.5549 11.379 20.8869 10.7565 22.2563C10.0095 23.8747 10.5905 24.9952 13.6614 28.1075C15.2798 29.6845 16.6077 31.2614 16.6077 31.5519C16.6077 31.8424 16.1098 33.7513 15.5288 35.7432C14.9063 37.7766 14.5328 39.7685 14.6988 40.142C15.0723 41.1794 16.6077 40.7644 20.55 38.5235C22.376 37.4861 24.0774 36.6146 24.2849 36.6146C24.5339 36.6146 25.8203 37.1956 27.1897 37.8596C30.0946 39.2705 31.5055 39.395 32.8335 38.3161C33.6634 37.6521 33.8294 37.0711 33.9539 34.4152L34.1199 31.2614L36.6928 29.643C40.0126 27.4436 41.4236 26.1571 41.7556 24.7877C42.2535 22.7128 39.6806 21.3019 35.4063 21.2604C32.875 21.2604 31.63 20.6379 31.298 19.3099C30.8416 17.4425 29.6381 14.8282 28.8497 14.0812C27.9367 13.1682 27.3142 13.2097 25.9863 14.2472ZM27.3972 19.8494C27.3972 20.1814 27.1067 20.4304 26.7748 20.4304C26.0693 20.4304 26.0278 20.3474 26.4013 19.4344C26.6918 18.6875 27.3972 18.9365 27.3972 19.8494ZM19.9276 24.3727C19.9276 24.9122 18.9316 27.0701 18.6826 27.0701C18.1847 27.0701 15.7778 24.9952 15.7778 24.5802C15.7778 24.3727 16.1928 24.1652 16.7322 24.0822C17.6037 23.9577 19.9276 24.1652 19.9276 24.3727ZM27.5217 24.5387C28.6007 24.9537 28.8082 25.4102 29.2646 27.9C29.5136 29.311 29.4721 29.394 27.2727 30.5974L24.9903 31.8009L23.3304 30.6804L21.629 29.56L22.2515 27.7756C23.3719 24.5387 24.9488 23.5842 27.5217 24.5387ZM35.8628 25.5762C35.6138 26.2401 33.7049 27.1531 33.207 26.8626C33.041 26.7796 32.792 26.2816 32.6675 25.8251C32.46 25.0782 32.6675 24.9952 34.2859 24.9952C35.6138 24.9952 36.0288 25.1197 35.8628 25.5762ZM20.3426 33.8758C20.3426 34.0003 20.1766 34.2077 19.9276 34.3322C19.7201 34.4567 19.5126 34.3737 19.5126 34.1663C19.5126 33.9173 19.7201 33.7098 19.9276 33.7098C20.1766 33.7098 20.3426 33.7928 20.3426 33.8758Z" fill="black"/>
</svg>
